<svg viewBox="0 0 3544 1063" xmlns="http://www.w3.org/2000/svg" xml:space="preserve" style="fill-rule:evenodd;clip-rule:evenodd;stroke-linejoin:round;stroke-miterlimit:2"><path d="M387.693 1010.13V711.673h177.846v298.457H387.693ZM588.4 651.007l-27.898 45.5H391.955l-61.607-33.584v432.787h9.299c24.023 0 48.046-18.95 48.046-28.16v-42.25h177.846v62.83h8.524c21.311 0 48.821-16.79 49.596-22.21V730.632c11.236-3.25 17.823-10.292 21.698-16.25L588.4 651.007ZM958.429 1069.17h-51.146V830.84h110.037c5.82 0 10.47-2.708 11.63-8.667-21.31-25.458-56.96-63.375-56.96-63.375l-31.385 56.875h-33.322V632.048c10.85-2.166 13.174-7.583 13.949-15.708l-75.168-9.75v462.58h-49.208V754.465c10.849-2.167 13.561-7.583 14.336-15.708l-74.781-8.667v339.08h-55.795l3.1 15.17h354.144c5.81 0 10.46-2.71 11.62-8.67-22.08-26-58.504-64.45-58.504-64.45l-32.547 57.95ZM1171.92 953.257c-8.13 9.75-18.98 18.958-27.51 18.958-9.3 0-17.43-14.083-17.43-40.083 0-26.542 8.13-63.917 27.51-98.584 3.87 17.875 8.13 35.209 11.62 46.584 5.04 16.25 11.62 33.583 22.86 50.375a270.263 270.263 0 0 1-17.05 22.75Zm82.15-194.459c-5.43 28.709-13.18 61.75-25.19 93.709-3.1 8.125-6.59 16.25-9.69 23.833-6.58-8.667-12.78-20.042-18.98-35.75-6.98-17.333-9.69-34.125-12.01-50.917 20.92-19.5 43-28.708 65.87-30.875Zm56.95-44.416c3.88-19.5 10.85-26 10.85-38.459 0-24.375-39.91-47.125-53.47-47.125-11.24 0-23.63 5.959-38.36 19.5l.78 7.042c8.13 1.083 16.27 2.708 22.08 5.417 5.81 2.708 9.3 6.5 9.3 18.416 0 10.834-1.16 28.709-3.87 49.834-28.68 4.333-53.86 16.791-74.01 32.5l-.77-4.334c-3.88-22.75-11.63-31.958-22.86-43.875-12.4-13.541-32.94-22.75-55.8-28.166l-1.94 4.333c14.34 22.75 28.68 48.208 35.26 74.208 2.71 10.292 5.43 23.292 8.53 36.834-22.86 30.333-56.57 79.625-56.57 161.958 0 41.165 13.56 83.955 45.33 83.955 27.51 0 44.95-21.66 60.83-39 6.98-7.58 17.05-21.663 27.9-40.08 8.14 5.417 17.44 10.292 25.18 10.292 13.57 0 22.48-8.125 22.48-24.375 0-20.042-7.75-34.667-17.44-44.417 5.81-13 10.85-26 15.11-39.542 15.11-46.583 23.25-74.208 30.61-104.541 46.89 18.416 63.16 74.208 63.16 122.416 0 80.167-35.26 150.587-144.52 185.787l1.16 9.75c144.52-3.25 199.54-72.04 199.54-183.62 0-85.583-44.17-152.75-111.97-167.917l3.48-16.791ZM1655.87 652.09c8.13 2.167 14.33 3.25 22.08 7.042 8.14 3.791 12.4 9.75 12.79 20.041 1.16 23.292.77 59.042 0 86.667-26.35 8.667-61.61 20.042-91.44 30.875.77-12.458 1.55-22.75 2.71-29.25 3.49-21.125 12.01-26.542 12.01-39.542 0-19.5-30.22-56.333-59.28-56.333-11.24 0-26.74 11.375-37.59 21.667l.78 5.958c8.14 2.708 16.27 4.333 22.86 10.292 5.42 4.875 7.36 10.291 8.52 25.458 1.55 22.208 2.33 50.375 2.72 79.083-28.68 10.292-58.9 20.042-66.65 20.042-10.07 0-17.82-5.417-27.12-20.042l-5.04 2.709c-.77 17.875-.39 34.125 3.49 45.5 8.14 23.833 23.25 46.041 37.2 46.041 11.23 0 28.67-14.625 58.89-34.125.39 44.417.39 85.042 1.16 114.292 2.71 78.545 42.62 93.165 113.14 93.165 34.49 0 61.61-3.25 79.43-9.75 18.21-6.5 26.74-18.96 26.74-34.12 0-27.63-21.7-40.087-40.69-40.087-6.2 0-46.88 19.497-95.7 19.497-37.2 0-43.01-10.83-43.4-50.913-.38-22.209 1.55-72.584 3.49-118.084 28.29-13.541 62-24.375 92.61-31.416-.78 22.208-1.94 49.291-3.88 60.666-3.1 17.875-7.75 18.417-17.43 18.417-7.75 0-29.45-5.417-49.99-11.917l-1.55 5.959c16.28 15.166 33.71 31.416 38.75 52.541 4.26 17.334 10.46 23.834 22.47 23.834 22.86 0 39.14-23.292 44.56-50.917 4.65-23.292 6.98-70.958 8.52-105.625 36.43-3.25 46.89 6.5 66.65 6.5 16.66 0 26.73-6.5 26.73-27.625 0-32.5-29.83-48.75-51.53-48.75-3.1 0-10.85 1.625-38.75 11.375 1.17-12.458 1.94-23.833 3.1-33.583 1.94-20.042 10.85-29.792 10.85-41.709 0-20.583-30.61-53.625-57.73-53.625-10.46 0-24.02 10.834-35.26 23.834l.78 5.958ZM1951.5 1035.05c-18.98 0-35.26-9.75-35.26-29.25 0-18.418 18.21-38.46 55.02-38.46 14.73 0 27.51 2.167 39.14 5.958-1.55 44.962-23.25 61.752-58.9 61.752Zm11.24-376.46c6.59 2.167 20.92 6.5 30.22 14.083 6.2 4.875 8.91 9.75 9.69 20.042 1.16 16.25 3.87 109.417 4.65 136.5.77 27.625 2.32 50.917 2.71 93.167h-7.36c-60.06 0-108.1 28.708-108.1 92.088 0 51.99 34.48 79.08 79.43 79.08 68.19 0 81.36-44.96 81.36-86.67 0-3.25 0-7.04-.39-10.29 4.27 3.25 8.53 6.5 12.4 9.75 37.59 30.33 53.09 70.96 75.56 70.96 12.79 0 21.31-9.75 21.31-31.96 0-38.46-27.9-69.333-58.89-89.917-13.18-9.208-33.33-20.041-57.35-26.541-2.71-30.875-3.1-58.5-3.1-80.709 0-13 .78-35.75 2.33-59.583 11.62 9.75 25.96 19.5 37.19 19.5 25.57 0 51.92-11.375 59.67-16.25 12.01-7.583 15.5-16.792 15.5-29.25 0-30.333-27.12-36.292-41.85-36.292-1.54 0-9.29 7.584-23.63 15.167-14.34 8.667-34.1 14.083-44.17 15.167 1.55-16.792 3.1-31.417 5.03-39 3.49-13.542 11.63-19.5 11.63-33.584 0-23.291-31.77-54.166-61.99-54.166-15.5 0-31.39 13-42.24 23.833l.39 4.875Z" style="fill-rule:nonzero" transform="matrix(1.92479 -.1684 0 1.38738 -629.109 -468.702)"/></svg>
